<svg xmlns="http://www.w3.org/2000/svg" viewBox="0 0 1600 900" role="img" aria-labelledby="title desc">
  <title id="title">Automated testing dashboard workspace</title>
  <desc id="desc">A dark QA automation command centre with test result panels, CI pipeline checks, API logs and a laptop dashboard.</desc>
  <defs>
    <linearGradient id="wall" x1="0" y1="0" x2="1" y2="1">
      <stop offset="0" stop-color="#181816"/>
      <stop offset="0.48" stop-color="#242522"/>
      <stop offset="1" stop-color="#111111"/>
    </linearGradient>
    <linearGradient id="screen" x1="0" y1="0" x2="1" y2="1">
      <stop offset="0" stop-color="#131a1d"/>
      <stop offset="1" stop-color="#080a0c"/>
    </linearGradient>
    <linearGradient id="orange" x1="0" y1="0" x2="1" y2="1">
      <stop offset="0" stop-color="#ff7a3d"/>
      <stop offset="1" stop-color="#ff4f18"/>
    </linearGradient>
    <filter id="soft" x="-20%" y="-20%" width="140%" height="140%">
      <feGaussianBlur stdDeviation="18"/>
    </filter>
  </defs>
  <rect width="1600" height="900" fill="url(#wall)"/>
  <circle cx="1240" cy="150" r="300" fill="#5bcad6" opacity="0.08" filter="url(#soft)"/>
  <circle cx="970" cy="680" r="360" fill="#ff5b1f" opacity="0.08" filter="url(#soft)"/>
  <g opacity="0.92">
    <rect x="760" y="86" width="700" height="178" rx="10" fill="url(#screen)" stroke="#343d40"/>
    <rect x="788" y="124" width="190" height="24" rx="4" fill="#2a3335"/>
    <path d="M790 220c44-42 84-22 124-56 46-39 82-30 128-12 52 20 86-44 130-30 46 15 72 70 120 48 34-16 58-54 118-42" fill="none" stroke="#ff5b1f" stroke-width="5"/>
    <path d="M790 222c70-20 108-8 154-26 48-18 90-16 132-2 62 20 106-14 156-10 54 5 94 30 180-8" fill="none" stroke="#5bcad6" stroke-width="4" opacity="0.72"/>
    <rect x="1034" y="126" width="380" height="18" rx="4" fill="#2d3738"/>
    <rect x="1034" y="162" width="310" height="12" rx="4" fill="#3e4849"/>
    <rect x="1034" y="188" width="340" height="12" rx="4" fill="#3e4849"/>
  </g>
  <g opacity="0.96">
    <rect x="808" y="304" width="322" height="220" rx="10" fill="url(#screen)" stroke="#343d40"/>
    <text x="834" y="344" fill="#f4f3ef" font-family="Arial, sans-serif" font-size="22" font-weight="700">Test Results Overview</text>
    <circle cx="914" cy="424" r="58" fill="none" stroke="#283234" stroke-width="24"/>
    <path d="M914 366a58 58 0 1 1-55 77" fill="none" stroke="#b8d936" stroke-width="24" stroke-linecap="round"/>
    <text x="884" y="433" fill="#f4f3ef" font-family="Arial, sans-serif" font-size="25" font-weight="700">92%</text>
    <rect x="1010" y="386" width="84" height="10" rx="4" fill="#b8d936"/>
    <rect x="1010" y="420" width="62" height="10" rx="4" fill="#ff5b1f"/>
    <rect x="1010" y="454" width="98" height="10" rx="4" fill="#5bcad6"/>
  </g>
  <g opacity="0.96">
    <rect x="1160" y="304" width="322" height="220" rx="10" fill="url(#screen)" stroke="#343d40"/>
    <text x="1186" y="344" fill="#f4f3ef" font-family="Arial, sans-serif" font-size="22" font-weight="700">Pipeline Status</text>
    <g fill="none" stroke-width="5">
      <path d="M1200 420h230" stroke="#344042"/>
      <circle cx="1200" cy="420" r="18" stroke="#b8d936"/>
      <circle cx="1258" cy="420" r="18" stroke="#b8d936"/>
      <circle cx="1316" cy="420" r="18" stroke="#b8d936"/>
      <circle cx="1374" cy="420" r="18" stroke="#b8d936"/>
      <circle cx="1432" cy="420" r="18" stroke="#5bcad6"/>
    </g>
    <g fill="#b8d936">
      <path d="m1191 419 6 7 13-16 6 5-19 24-13-15z"/>
      <path d="m1249 419 6 7 13-16 6 5-19 24-13-15z"/>
      <path d="m1307 419 6 7 13-16 6 5-19 24-13-15z"/>
      <path d="m1365 419 6 7 13-16 6 5-19 24-13-15z"/>
    </g>
  </g>
  <g opacity="0.96">
    <rect x="808" y="558" width="674" height="220" rx="10" fill="url(#screen)" stroke="#343d40"/>
    <text x="834" y="600" fill="#f4f3ef" font-family="Arial, sans-serif" font-size="22" font-weight="700">API Integration Suite</text>
    <g font-family="Arial, sans-serif" font-size="17">
      <rect x="834" y="638" width="602" height="1" fill="#30393b"/>
      <rect x="834" y="684" width="602" height="1" fill="#30393b"/>
      <rect x="834" y="730" width="602" height="1" fill="#30393b"/>
      <text x="834" y="668" fill="#d8d5cc">Create policy request</text>
      <text x="834" y="714" fill="#d8d5cc">Validate order response</text>
      <text x="834" y="760" fill="#d8d5cc">Security scan</text>
      <text x="1290" y="668" fill="#b8d936">Passed</text>
      <text x="1290" y="714" fill="#b8d936">Passed</text>
      <text x="1290" y="760" fill="#5bcad6">Queued</text>
    </g>
  </g>
  <g opacity="0.96">
    <path d="M580 720h460l38 72H532z" fill="#0a0d0e" stroke="#343d40"/>
    <rect x="610" y="438" width="390" height="280" rx="12" fill="#0d1112" stroke="#3b4648"/>
    <rect x="638" y="472" width="210" height="18" rx="4" fill="#2f393b"/>
    <rect x="638" y="520" width="286" height="12" rx="4" fill="#b8d936" opacity="0.7"/>
    <rect x="638" y="552" width="232" height="12" rx="4" fill="#5bcad6" opacity="0.7"/>
    <rect x="638" y="584" width="310" height="12" rx="4" fill="#ff5b1f" opacity="0.68"/>
    <rect x="638" y="632" width="84" height="44" rx="8" fill="#152022" stroke="#3b4648"/>
    <rect x="742" y="632" width="84" height="44" rx="8" fill="#152022" stroke="#3b4648"/>
    <rect x="846" y="632" width="84" height="44" rx="8" fill="#152022" stroke="#3b4648"/>
  </g>
</svg>
